<svg width="341" height="310" viewBox="0 0 341 310" fill="none" xmlns="http://www.w3.org/2000/svg">
<g clip-path="url(#clip0_2630_319)">
<path d="M42.79 91.3401C63.5007 91.3401 80.29 74.5508 80.29 53.8401C80.29 33.1294 63.5007 16.3401 42.79 16.3401C22.0794 16.3401 5.29004 33.1294 5.29004 53.8401C5.29004 74.5508 22.0794 91.3401 42.79 91.3401Z" fill="#DDDBFC"/>
<path d="M113.59 57.34C113.59 53.47 110.45 50.33 106.58 50.33C105.59 50.33 104.66 50.54 103.81 50.9C103.92 50.06 104 49.2 104 48.33C104 37.36 95.0999 28.46 84.1299 28.46C73.1599 28.46 64.5499 37.09 64.2799 47.83C62.7299 46.97 60.9399 46.49 59.0499 46.49C53.0499 46.49 48.1899 51.35 48.1899 57.35H113.59V57.34Z" fill="white"/>
<path d="M270.05 239.94H240.38V233.16C240.38 224.97 247.02 218.33 255.21 218.33C263.4 218.33 270.04 224.97 270.04 233.16V239.94H270.05Z" fill="#DDDBFC"/>
<path d="M310.11 239.94H263.38V222.43C263.38 209.53 273.84 199.06 286.75 199.06C299.65 199.06 310.12 209.52 310.12 222.43V239.94H310.11Z" fill="#DDDBFC"/>
<path d="M221.08 186.85C237.83 186.85 251.43 200.45 251.43 217.2V239.94H190.73V217.2C190.73 200.45 204.33 186.85 221.08 186.85Z" fill="#DDDBFC"/>
<path d="M319.888 121.527C347.69 93.726 347.69 48.651 319.888 20.8496C292.087 -6.95187 247.012 -6.95187 219.211 20.8496C191.409 48.651 191.409 93.726 219.211 121.527C247.012 149.329 292.087 149.329 319.888 121.527Z" fill="#F2780C"/>
<path d="M304.02 8.90015C309.68 19.1101 312.92 30.8601 312.92 43.3701C312.92 82.6901 281.05 114.56 241.73 114.56C229.22 114.56 217.48 111.33 207.26 105.66C219.4 127.56 242.74 142.39 269.55 142.39C308.87 142.39 340.74 110.52 340.74 71.2001C340.74 44.3901 325.91 21.0501 304.01 8.91015L304.02 8.90015Z" fill="#DB4A36"/>
<path d="M290.21 107.92L286.68 104.39L270.6 120.46V96.8301H265.6V134.81L252.43 121.63L248.89 125.16L265.6 141.88V239.94H270.6V127.53L290.21 107.92Z" fill="#39814F"/>
<path d="M43.1599 159.77H35.1699V163.88H43.1599V159.77Z" fill="#39814F"/>
<path d="M35.5116 165.527C37.5622 157.381 32.621 149.115 24.4749 147.065C16.3288 145.014 8.06263 149.955 6.01194 158.101C3.96124 166.247 8.90255 174.513 17.0486 176.564C25.1947 178.615 33.4609 173.674 35.5116 165.527Z" fill="#75AF47"/>
<path d="M20.7598 146.62C12.3598 146.62 5.5498 153.43 5.5498 161.83C5.5498 170.23 12.3598 177.04 20.7598 177.04C29.1598 177.04 35.9698 170.23 35.9698 161.83C35.9698 153.43 29.1598 146.62 20.7598 146.62ZM18.9998 172.56C12.1198 172.56 6.5398 166.98 6.5398 160.1C6.5398 153.22 12.1198 147.64 18.9998 147.64C25.8798 147.64 31.4598 153.22 31.4598 160.1C31.4598 166.98 25.8798 172.56 18.9998 172.56Z" fill="#39814F"/>
<path d="M32.7823 165.084C34.59 158.444 30.6729 151.596 24.0331 149.788C17.3933 147.981 10.5453 151.898 8.73753 158.538C6.9298 165.177 10.847 172.026 17.4868 173.833C24.1265 175.641 30.9746 171.724 32.7823 165.084Z" fill="#F2BE5C"/>
<path d="M28.7202 152.25C30.5202 154.41 31.6102 157.19 31.6102 160.22C31.6102 167.1 26.0302 172.68 19.1502 172.68C16.1202 172.68 13.3402 171.59 11.1802 169.79C13.4702 172.53 16.9002 174.28 20.7502 174.28C27.6302 174.28 33.2102 168.7 33.2102 161.82C33.2102 157.97 31.4602 154.53 28.7202 152.25Z" fill="#F2780C"/>
<path d="M16.0193 160.038L15.031 160.099C15.0141 160.014 14.9778 159.938 14.9221 159.871C14.8663 159.802 14.7928 159.747 14.7016 159.706C14.6121 159.664 14.5048 159.643 14.3798 159.643C14.2126 159.643 14.0715 159.678 13.9566 159.749C13.8418 159.818 13.7843 159.911 13.7843 160.028C13.7843 160.121 13.8215 160.199 13.8958 160.264C13.9702 160.328 14.0977 160.379 14.2785 160.418L14.9829 160.56C15.3613 160.638 15.6434 160.763 15.8292 160.935C16.0151 161.107 16.108 161.334 16.108 161.614C16.108 161.869 16.0328 162.093 15.8825 162.286C15.7338 162.478 15.5294 162.629 15.2692 162.737C15.0108 162.843 14.7126 162.896 14.3747 162.896C13.8595 162.896 13.449 162.789 13.1432 162.575C12.8392 162.358 12.6609 162.064 12.6086 161.693L13.6703 161.637C13.7024 161.794 13.7801 161.914 13.9034 161.997C14.0267 162.078 14.1847 162.118 14.3773 162.118C14.5665 162.118 14.7185 162.082 14.8334 162.009C14.95 161.935 15.0091 161.84 15.0108 161.723C15.0091 161.625 14.9677 161.545 14.8866 161.482C14.8055 161.418 14.6805 161.369 14.5116 161.335L13.8375 161.201C13.4574 161.125 13.1745 160.993 12.9887 160.806C12.8045 160.618 12.7125 160.379 12.7125 160.089C12.7125 159.839 12.78 159.623 12.9152 159.443C13.052 159.262 13.2437 159.122 13.4904 159.024C13.7387 158.926 14.0293 158.877 14.3621 158.877C14.8537 158.877 15.2405 158.981 15.5226 159.189C15.8064 159.397 15.972 159.68 16.0193 160.038ZM17.8672 160.57V162.82H16.7877V157.631H17.8368V159.615H17.8824C17.9702 159.385 18.1121 159.205 18.3081 159.075C18.5041 158.943 18.7499 158.877 19.0455 158.877C19.3158 158.877 19.5514 158.937 19.7525 159.055C19.9552 159.171 20.1123 159.339 20.2238 159.559C20.337 159.777 20.3927 160.038 20.391 160.342V162.82H19.3116V160.535C19.3132 160.295 19.2524 160.108 19.1291 159.975C19.0075 159.841 18.8369 159.774 18.6173 159.774C18.4703 159.774 18.3402 159.806 18.227 159.868C18.1155 159.931 18.0277 160.022 17.9635 160.142C17.901 160.26 17.8689 160.403 17.8672 160.57ZM22.9991 162.896C22.6055 162.896 22.2651 162.813 21.9779 162.645C21.6924 162.477 21.472 162.242 21.3166 161.941C21.1612 161.639 21.0834 161.288 21.0834 160.889C21.0834 160.487 21.1612 160.136 21.3166 159.835C21.472 159.533 21.6924 159.298 21.9779 159.131C22.2651 158.962 22.6055 158.877 22.9991 158.877C23.3927 158.877 23.7323 158.962 24.0178 159.131C24.305 159.298 24.5263 159.533 24.6817 159.835C24.8371 160.136 24.9148 160.487 24.9148 160.889C24.9148 161.288 24.8371 161.639 24.6817 161.941C24.5263 162.242 24.305 162.477 24.0178 162.645C23.7323 162.813 23.3927 162.896 22.9991 162.896ZM23.0042 162.06C23.1833 162.06 23.3328 162.009 23.4527 161.908C23.5726 161.805 23.663 161.665 23.7238 161.487C23.7863 161.31 23.8176 161.108 23.8176 160.882C23.8176 160.655 23.7863 160.454 23.7238 160.276C23.663 160.099 23.5726 159.959 23.4527 159.856C23.3328 159.753 23.1833 159.701 23.0042 159.701C22.8234 159.701 22.6714 159.753 22.5481 159.856C22.4264 159.959 22.3344 160.099 22.2719 160.276C22.2111 160.454 22.1807 160.655 22.1807 160.882C22.1807 161.108 22.2111 161.31 22.2719 161.487C22.3344 161.665 22.4264 161.805 22.5481 161.908C22.6714 162.009 22.8234 162.06 23.0042 162.06ZM25.6167 164.28V158.928H26.681V159.582H26.7291C26.7764 159.477 26.8449 159.371 26.9344 159.263C27.0256 159.153 27.1439 159.062 27.2891 158.989C27.4361 158.915 27.6186 158.877 27.8365 158.877C28.1203 158.877 28.3821 158.952 28.622 159.1C28.8619 159.247 29.0536 159.47 29.1972 159.767C29.3408 160.063 29.4126 160.433 29.4126 160.879C29.4126 161.313 29.3425 161.68 29.2023 161.979C29.0638 162.276 28.8746 162.502 28.6347 162.656C28.3965 162.808 28.1296 162.884 27.8339 162.884C27.6245 162.884 27.4463 162.849 27.2993 162.78C27.154 162.711 27.0349 162.624 26.942 162.519C26.8491 162.412 26.7781 162.305 26.7291 162.197H26.6962V164.28H25.6167ZM26.6734 160.874C26.6734 161.106 26.7055 161.308 26.7697 161.48C26.8339 161.652 26.9268 161.786 27.0484 161.883C27.17 161.977 27.3179 162.025 27.4919 162.025C27.6676 162.025 27.8162 161.976 27.9378 161.88C28.0595 161.782 28.1515 161.647 28.214 161.475C28.2782 161.301 28.3103 161.101 28.3103 160.874C28.3103 160.65 28.2791 160.452 28.2166 160.281C28.1541 160.111 28.062 159.977 27.9404 159.881C27.8187 159.785 27.6692 159.736 27.4919 159.736C27.3162 159.736 27.1675 159.783 27.0459 159.876C26.9259 159.969 26.8339 160.101 26.7697 160.271C26.7055 160.442 26.6734 160.643 26.6734 160.874Z" fill="#F2780C"/>
<path d="M127.29 57.3401H48.1802V73.0401H127.29V57.3401Z" fill="#F2780C"/>
<path d="M232.9 65.1902H32.0801V98.5402H232.9V65.1902Z" fill="#F2BE5C"/>
<path d="M232.9 68.8601H32.0801V71.4501H232.9V68.8601Z" fill="#F2780C"/>
<path d="M234.9 65.1902H30.0801V68.8602H234.9V65.1902Z" fill="#F9FBFC"/>
<path d="M232.9 89.7002H32.0801V98.5402H232.9V89.7002Z" fill="#F2780C"/>
<path d="M222 98.3401H42.98V234.43H222V98.3401Z" fill="#F2780C"/>
<path d="M222 98.3401H42.98V169.14H222V98.3401Z" fill="#DB4A36"/>
<path d="M17.73 115.15H46.42V129.49C46.42 137.41 39.99 143.83 32.08 143.83C24.16 143.83 17.74 137.4 17.74 129.49V115.15H17.73Z" fill="#39814F"/>
<path d="M46.4199 115.15H75.1099V129.49C75.1099 137.41 68.6799 143.83 60.7699 143.83C52.8499 143.83 46.4299 137.4 46.4299 129.49V115.15H46.4199Z" fill="#DDDBFC"/>
<path d="M89.4499 143.84C81.5299 143.84 75.1099 137.42 75.1099 129.5V115.16H103.8V129.5C103.8 137.42 97.3799 143.84 89.4599 143.84H89.4499Z" fill="#39814F"/>
<path d="M118.14 143.84C110.22 143.84 103.8 137.42 103.8 129.5V115.16H132.49V129.5C132.49 137.42 126.07 143.84 118.15 143.84H118.14Z" fill="#DDDBFC"/>
<path d="M132.49 115.15H161.18V129.49C161.18 137.41 154.75 143.83 146.84 143.83C138.92 143.83 132.5 137.4 132.5 129.49V115.15H132.49Z" fill="#39814F"/>
<path d="M175.52 143.84C167.6 143.84 161.18 137.42 161.18 129.5V115.16H189.87V129.5C189.87 137.42 183.45 143.84 175.53 143.84H175.52Z" fill="#DDDBFC"/>
<path d="M204.21 143.84C196.29 143.84 189.87 137.42 189.87 129.5V115.16H218.56V129.5C218.56 137.42 212.14 143.84 204.22 143.84H204.21Z" fill="#39814F"/>
<path d="M232.89 143.84C224.97 143.84 218.55 137.42 218.55 129.5V115.16H247.24V129.5C247.24 137.42 240.82 143.84 232.9 143.84H232.89Z" fill="#DDDBFC"/>
<path d="M65.35 98.3401H42.98L17.73 115.15H46.42L65.35 98.3401Z" fill="#75AF47"/>
<path d="M87.7299 98.3401H65.3499L46.4199 115.15H75.1099L87.7299 98.3401Z" fill="#F9FBFC"/>
<path d="M110.11 98.3401H87.7299L75.1099 115.15H103.8L110.11 98.3401Z" fill="#75AF47"/>
<path d="M132.49 98.3401H110.11L103.8 115.15H132.49V98.3401Z" fill="#F9FBFC"/>
<path d="M154.86 98.3401H132.49V115.15H161.17L154.86 98.3401Z" fill="#75AF47"/>
<path d="M177.24 98.3401H154.86L161.17 115.15H189.86L177.24 98.3401Z" fill="#F9FBFC"/>
<path d="M199.62 98.3401H177.24L189.86 115.15H218.55L199.62 98.3401Z" fill="#75AF47"/>
<path d="M221.99 98.3401H199.62L218.55 115.15H247.24L221.99 98.3401Z" fill="#F9FBFC"/>
<path d="M222 93.9001H42.98V98.3401H222V93.9001Z" fill="#39814F"/>
<path d="M147.25 227.29H37.75V239.93H147.25V227.29Z" fill="#F2BE5C"/>
<path d="M227.21 227.29H197.01V239.93H227.21V227.29Z" fill="#F2BE5C"/>
<path d="M197.01 159.77H147.25V239.93H197.01V159.77Z" fill="#75AF47"/>
<path d="M197.01 159.77H147.25V169.14H197.01V159.77Z" fill="#39814F"/>
<path d="M189.87 166.09H154.41V214.88H189.87V166.09Z" fill="#DDDBFC"/>
<path d="M189.87 166.09H154.41V169.13H189.87V166.09Z" fill="#C9C9F4"/>
<path d="M189.86 169.3L154.41 204.75V208.17L189.86 172.72V169.3Z" fill="#F9FBFC"/>
<path d="M154.41 212.56L189.86 177.1V214.88H154.41V212.56Z" fill="#F9FBFC"/>
<path d="M159.97 169.14H157.55V228.86H159.97V169.14Z" fill="#C9C9F4"/>
<path d="M159.98 202.61L157.76 204.82V201.4L159.98 199.19V202.61Z" fill="#DDDBFC"/>
<path d="M159.98 214.88V206.99L157.76 209.2V214.88H159.98Z" fill="#DDDBFC"/>
<path d="M159.97 214.88H157.55V228.86H159.97V214.88Z" fill="#39814F"/>
<path d="M158.97 167.7H156.55V227.42H158.97V167.7Z" fill="#F2780C"/>
<path d="M158.97 167.7H156.55V169.14H158.97V167.7Z" fill="#DB4A36"/>
<path d="M132.49 159.77H67.9604V213.69H132.49V159.77Z" fill="#DDDBFC"/>
<path d="M91.5103 213.7L132.49 172.72V169.3L88.0903 213.7H91.5103Z" fill="#F9FBFC"/>
<path d="M132.49 213.7V177.1L95.8901 213.7H132.49Z" fill="#F9FBFC"/>
<path d="M132.49 159.77H67.9604V169.14H132.49V159.77Z" fill="#C9C9F4"/>
<path d="M134.97 213.77H65.4702V217.77H134.97V213.77Z" fill="#F2BE5C"/>
<path d="M134.97 217.78H65.4702V221.78H134.97V217.78Z" fill="#DB4A36"/>
<path d="M248.42 239.94H242.23V210.89C242.23 209.61 243.27 208.58 244.54 208.58H246.1C247.38 208.58 248.41 209.62 248.41 210.89V239.94H248.42Z" fill="#75AF47"/>
<path d="M251.5 239.93H239.16V238.94C239.16 238.09 239.85 237.4 240.7 237.4H249.96C250.81 237.4 251.5 238.09 251.5 238.94V239.93Z" fill="#75AF47"/>
<path d="M244.55 239.93H246.11V130.13H244.55V239.93Z" fill="#75AF47"/>
<path d="M245.33 134.72C251.228 134.72 256.01 129.939 256.01 124.04C256.01 118.142 251.228 113.36 245.33 113.36C239.432 113.36 234.65 118.142 234.65 124.04C234.65 129.939 239.432 134.72 245.33 134.72Z" fill="#F9FBFC"/>
<path d="M241.16 133.85H249.5V134.84C249.5 135.69 248.81 136.38 247.96 136.38H242.7C241.85 136.38 241.16 135.69 241.16 134.84V133.85Z" fill="#75AF47"/>
<path d="M235.92 192.83L230.67 239.94H226.37L227.08 233.63H208.17L207.47 239.94H203.17L208.43 192.83H235.92Z" fill="#DB4A36"/>
<path d="M208.43 192.83L213.69 239.94H217.98L217.28 233.63H236.18L236.89 239.94H241.18L235.92 192.83H208.43Z" fill="#F2BE5C"/>
<path d="M215.8 230.48L211.95 195.97H233.11L236.96 230.48H215.8Z" fill="#39814F"/>
<path d="M217.37 230.48L213.52 195.97H234.68L238.54 230.48H217.37Z" fill="#75AF47"/>
<path d="M8.81006 239.94H311.76" stroke="#39814F" stroke-width="2" stroke-miterlimit="10" stroke-linecap="round"/>
<path d="M86.51 228.69C88.61 259.06 61.43 288.24 49.15 299.78C45.87 302.87 40.76 302.88 37.48 299.79C25.67 288.69 0 261.21 0 232.05C0 208.21 19.26 188.87 43.06 188.74C65.92 188.61 84.93 205.89 86.51 228.7V228.69Z" fill="#75AF47"/>
<path d="M86.51 228.69C85.69 216.82 80.14 206.46 71.79 199.26C77.62 206.01 81.38 214.63 82.04 224.22C84.14 254.59 56.96 283.77 44.68 295.31C41.4 298.4 36.29 298.41 33.01 295.32C32.54 294.88 32.05 294.41 31.54 293.92C33.73 296.19 35.76 298.17 37.48 299.79C40.76 302.87 45.87 302.86 49.15 299.78C61.43 288.24 88.61 259.06 86.51 228.69Z" fill="#39814F"/>
<path d="M50.5864 253.156C61.6996 249.133 67.4474 236.863 63.4244 225.749C59.4015 214.636 47.1313 208.889 36.0182 212.911C24.905 216.934 19.1572 229.205 23.1801 240.318C27.203 251.431 39.4732 257.179 50.5864 253.156Z" fill="#39814F"/>
<path d="M61.9574 240.376C66.5462 230.075 61.9149 218.003 51.6131 213.414C41.3112 208.826 29.2399 213.457 24.6511 223.759C20.0623 234.061 24.6936 246.132 34.9954 250.721C45.2973 255.31 57.3686 250.678 61.9574 240.376Z" fill="#DDDBFC"/>
<path d="M190.74 35.8701C190.74 32.1101 187.7 29.0701 183.94 29.0701C182.98 29.0701 182.08 29.2701 181.25 29.6201C181.36 28.8001 181.43 27.9701 181.43 27.1201C181.43 16.4701 172.8 7.84009 162.15 7.84009C151.5 7.84009 143.16 16.2101 142.9 26.6301C141.39 25.8001 139.66 25.3301 137.82 25.3301C132 25.3301 127.28 30.0501 127.28 35.8701H190.73H190.74Z" fill="#DDDBFC"/>
<path d="M94.5402 302.1C107.27 302.1 117.59 291.78 117.59 279.05C117.59 266.32 107.27 256 94.5402 256C81.8101 256 71.4902 266.32 71.4902 279.05C71.4902 291.78 81.8101 302.1 94.5402 302.1Z" fill="#F2BE5C"/>
<path d="M94.5403 295.79C103.786 295.79 111.28 288.295 111.28 279.05C111.28 269.805 103.786 262.31 94.5403 262.31C85.295 262.31 77.8003 269.805 77.8003 279.05C77.8003 288.295 85.295 295.79 94.5403 295.79Z" fill="#F2780C"/>
<path d="M105.5 266.42C108.05 269.36 109.61 273.19 109.61 277.38C109.61 286.63 102.11 294.12 92.8702 294.12C88.6702 294.12 84.8402 292.56 81.9102 290.01C84.9802 293.54 89.4902 295.79 94.5402 295.79C103.79 295.79 111.28 288.29 111.28 279.05C111.28 274 109.04 269.49 105.5 266.42Z" fill="#DB4A36"/>
<path d="M105.791 289.472C112.004 283.258 112.004 273.185 105.791 266.971C99.578 260.758 89.5043 260.758 83.2911 266.971C77.0778 273.185 77.0778 283.258 83.2911 289.472C89.5043 295.685 99.578 295.685 105.791 289.472Z" fill="#F2BE5C"/>
<path d="M101.612 274.141L100.86 277.004H87.0504L87.7919 274.141H101.612ZM94.4343 290L87.3903 281.617L87.4006 279.043H90.8814C91.6572 279.043 92.306 278.898 92.8278 278.61C93.3496 278.322 93.7409 277.93 94.0018 277.436C94.2627 276.942 94.3965 276.379 94.4034 275.747C94.3965 274.8 94.1185 274.027 93.5692 273.43C93.0269 272.826 92.1309 272.524 90.8814 272.524H87.0504L87.8949 268.909H90.8814C92.6321 268.909 94.091 269.173 95.2582 269.702C96.4322 270.224 97.311 270.969 97.8945 271.937C98.485 272.905 98.7836 274.058 98.7905 275.397C98.7836 276.585 98.5845 277.621 98.1932 278.507C97.8087 279.393 97.2011 280.131 96.3704 280.721C95.5465 281.312 94.4721 281.751 93.147 282.039L92.9822 282.101L99.2848 289.815V290H94.4343ZM101.633 268.909L100.86 271.813H89.4911L90.2635 268.909H101.633Z" fill="#F2780C"/>
<path d="M109.98 261.94C113.67 266.03 115.92 271.44 115.92 277.38C115.92 290.11 105.6 300.43 92.8702 300.43C86.9302 300.43 81.5102 298.18 77.4302 294.49C81.6502 299.16 87.7502 302.1 94.5402 302.1C107.27 302.1 117.59 291.78 117.59 279.05C117.59 272.26 114.65 266.16 109.98 261.94Z" fill="#F2780C"/>
<path d="M106.77 268.05C108.56 270.72 109.61 273.93 109.61 277.38C109.61 286.34 102.56 293.64 93.7002 294.08C93.9802 294.09 94.2502 294.12 94.5302 294.12C103.32 294.12 110.44 287 110.44 278.21C110.44 274.34 109.06 270.8 106.76 268.04L106.77 268.05Z" fill="#F2780C"/>
<path d="M148.838 283C163.66 283 175.675 270.984 175.675 256.162C175.675 241.34 163.66 229.325 148.838 229.325C134.016 229.325 122 241.34 122 256.162C122 270.984 134.016 283 148.838 283Z" fill="#F2BE5C"/>
<path d="M148.837 275.653C159.602 275.653 168.328 266.927 168.328 256.162C168.328 245.398 159.602 236.672 148.837 236.672C138.073 236.672 129.347 245.398 129.347 256.162C129.347 266.927 138.073 275.653 148.837 275.653Z" fill="#F2780C"/>
<path d="M161.598 241.457C164.567 244.88 166.384 249.339 166.384 254.218C166.384 264.988 157.651 273.709 146.893 273.709C142.003 273.709 137.543 271.892 134.132 268.923C137.706 273.033 142.957 275.653 148.837 275.653C159.607 275.653 168.328 266.921 168.328 256.162C168.328 250.282 165.72 245.031 161.598 241.457Z" fill="#DB4A36"/>
<path d="M161.937 268.296C169.172 261.062 169.172 249.333 161.937 242.099C154.703 234.865 142.974 234.865 135.74 242.099C128.506 249.333 128.506 261.062 135.74 268.296C142.974 275.53 154.703 275.53 161.937 268.296Z" fill="#F2BE5C"/>
<path d="M156.766 249.953L155.91 253.211H140.195L141.039 249.953H156.766ZM148.598 268L140.582 258.461L140.594 255.531H144.555C145.438 255.531 146.176 255.367 146.77 255.039C147.363 254.711 147.809 254.266 148.105 253.703C148.402 253.141 148.555 252.5 148.563 251.781C148.555 250.703 148.238 249.824 147.613 249.145C146.996 248.457 145.977 248.113 144.555 248.113H140.195L141.156 244H144.555C146.547 244 148.207 244.301 149.535 244.902C150.871 245.496 151.871 246.344 152.535 247.445C153.207 248.547 153.547 249.859 153.555 251.383C153.547 252.734 153.32 253.914 152.875 254.922C152.438 255.93 151.746 256.77 150.801 257.441C149.863 258.113 148.641 258.613 147.133 258.941L146.945 259.012L154.117 267.789V268H148.598ZM156.789 244L155.91 247.305H142.973L143.852 244H156.789Z" fill="#F2780C"/>
<path d="M166.815 236.241C171.111 241.003 173.731 247.302 173.731 254.218C173.731 269.04 161.715 281.056 146.893 281.056C139.977 281.056 133.666 278.436 128.916 274.14C133.829 279.577 140.932 283 148.838 283C163.659 283 175.675 270.984 175.675 256.162C175.675 248.257 172.252 241.154 166.815 236.241Z" fill="#F2780C"/>
<path d="M163.078 243.355C165.162 246.464 166.384 250.201 166.384 254.218C166.384 264.65 158.176 273.15 147.86 273.662C148.186 273.674 148.5 273.709 148.826 273.709C159.061 273.709 167.351 265.419 167.351 255.184C167.351 250.678 165.744 246.557 163.066 243.343L163.078 243.355Z" fill="#F2780C"/>
<path d="M296.81 237.41H246.73C245.625 237.41 244.73 238.306 244.73 239.41V281.81C244.73 282.915 245.625 283.81 246.73 283.81H296.81C297.915 283.81 298.81 282.915 298.81 281.81V239.41C298.81 238.306 297.915 237.41 296.81 237.41Z" fill="#39814F"/>
<path d="M259.73 237.41V277.32H298.81V239.41C298.81 238.31 297.91 237.41 296.81 237.41H259.73Z" fill="#75AF47"/>
<path d="M293.72 241.39H288.92C288.351 241.39 287.89 241.851 287.89 242.42V247.22C287.89 247.789 288.351 248.25 288.92 248.25H293.72C294.289 248.25 294.75 247.789 294.75 247.22V242.42C294.75 241.851 294.289 241.39 293.72 241.39Z" fill="#DDDBFC"/>
<path d="M293.72 249.84H288.92C288.351 249.84 287.89 250.301 287.89 250.87V255.67C287.89 256.239 288.351 256.7 288.92 256.7H293.72C294.289 256.7 294.75 256.239 294.75 255.67V250.87C294.75 250.301 294.289 249.84 293.72 249.84Z" fill="#DDDBFC"/>
<path d="M296.92 206H261.73C260.625 206 259.73 206.896 259.73 208V235.45C259.73 236.555 260.625 237.45 261.73 237.45H296.92C298.025 237.45 298.92 236.555 298.92 235.45V208C298.92 206.896 298.025 206 296.92 206Z" fill="#39814F"/>
<path d="M270.6 206V232.75H298.92V208C298.92 206.9 298.02 206 296.92 206H270.6Z" fill="#75AF47"/>
<path d="M293.72 210.7H288.92C288.351 210.7 287.89 211.161 287.89 211.73V216.53C287.89 217.099 288.351 217.56 288.92 217.56H293.72C294.289 217.56 294.75 217.099 294.75 216.53V211.73C294.75 211.161 294.289 210.7 293.72 210.7Z" fill="#DDDBFC"/>
<path d="M293.72 219.16H288.92C288.351 219.16 287.89 219.621 287.89 220.19V224.99C287.89 225.559 288.351 226.02 288.92 226.02H293.72C294.289 226.02 294.75 225.559 294.75 224.99V220.19C294.75 219.621 294.289 219.16 293.72 219.16Z" fill="#DDDBFC"/>
<path d="M277.89 206V283.81" stroke="#DB4A36" stroke-miterlimit="10"/>
<path d="M316.71 188.92L309.55 196.08C305.76 199.87 303.64 205 303.64 210.36V279.25C303.64 281.76 301.6 283.8 299.09 283.8H263.08C257.18 283.8 251.51 286.15 247.34 290.32L236.27 301.39" stroke="#39814F" stroke-width="3" stroke-miterlimit="10"/>
<path d="M321.48 188.92C321.48 191.55 319.34 193.69 316.71 193.69C314.08 193.69 311.94 191.55 311.94 188.92C311.94 186.29 314.08 184.15 316.71 184.15C319.34 184.15 321.48 186.29 321.48 188.92Z" fill="#75AF47"/>
<path d="M319.58 185.12C320.18 185.92 320.54 186.91 320.54 187.99C320.54 190.62 318.4 192.76 315.77 192.76C314.69 192.76 313.7 192.4 312.9 191.8C313.77 192.95 315.15 193.7 316.71 193.7C319.34 193.7 321.48 191.56 321.48 188.93C321.48 187.37 320.73 185.99 319.58 185.12Z" fill="#39814F"/>
<path d="M240.13 295.45H244.29C244.84 295.45 245.28 295.9 245.28 296.44V300.99C245.28 301.6 244.79 302.09 244.18 302.09H234.85C233.86 302.09 233.37 300.9 234.07 300.2L238.01 296.3C238.57 295.74 239.33 295.43 240.12 295.43L240.13 295.45Z" fill="#39814F"/>
<path d="M297.56 302.11C303.165 302.11 307.71 297.566 307.71 291.96C307.71 286.354 303.165 281.81 297.56 281.81C291.954 281.81 287.41 286.354 287.41 291.96C287.41 297.566 291.954 302.11 297.56 302.11Z" fill="#75AF47"/>
<path d="M302.79 291.96C302.79 294.85 300.45 297.19 297.56 297.19C294.67 297.19 292.33 294.85 292.33 291.96C292.33 289.07 294.67 286.73 297.56 286.73C300.45 286.73 302.79 289.07 302.79 291.96Z" fill="#39814F"/>
<path d="M303.659 283.86C304.939 285.56 305.709 287.67 305.709 289.96C305.709 295.56 301.169 300.11 295.559 300.11C293.269 300.11 291.159 299.34 289.459 298.06C291.309 300.52 294.239 302.11 297.559 302.11C303.159 302.11 307.709 297.57 307.709 291.96C307.709 288.65 306.119 285.71 303.659 283.86Z" fill="#39814F"/>
<path d="M207.26 302.1H311.76" stroke="#39814F" stroke-width="2" stroke-miterlimit="10" stroke-linecap="round"/>
<path d="M2.77002 302.1H117.59" stroke="#39814F" stroke-width="2" stroke-miterlimit="10" stroke-linecap="round"/>
<path d="M226.98 283.52L223.4 287.1" stroke="#75AF47" stroke-miterlimit="10"/>
<path d="M201.39 309.11C200.23 307.95 200.23 306.08 201.39 304.93L221.7 284.62L225.88 288.8L205.57 309.11C204.41 310.27 202.54 310.27 201.39 309.11Z" fill="#F2780C"/>
<g opacity="0.8">
<path d="M240.93 289.3C251.827 289.3 260.66 280.467 260.66 269.57C260.66 258.674 251.827 249.84 240.93 249.84C230.034 249.84 221.2 258.674 221.2 269.57C221.2 280.467 230.034 289.3 240.93 289.3Z" fill="#DDDBFC"/>
<path d="M227.12 283.64C227.71 284.21 228.32 284.73 228.96 285.22L256.59 257.59C256.1 256.95 255.58 256.34 255.01 255.75L227.13 283.63L227.12 283.64Z" fill="#F9FBFC"/>
<path d="M254.88 283.52C261.18 277.22 262.32 267.72 258.32 260.25L231.62 286.95C239.09 290.96 248.59 289.82 254.89 283.51L254.88 283.52Z" fill="#F9FBFC"/>
</g>
<path d="M240.93 289.3C251.827 289.3 260.66 280.467 260.66 269.57C260.66 258.674 251.827 249.84 240.93 249.84C230.034 249.84 221.2 258.674 221.2 269.57C221.2 280.467 230.034 289.3 240.93 289.3Z" stroke="#75AF47" stroke-width="2" stroke-miterlimit="10"/>
</g>
<defs>
<clipPath id="clip0_2630_319">
<rect width="340.74" height="309.98" fill="white"/>
</clipPath>
</defs>
</svg>
